<?xml version="1.0" standalone="no"?><!DOCTYPE svg PUBLIC "-//W3C//DTD SVG 1.1//EN" "http://www.w3.org/Graphics/SVG/1.1/DTD/svg11.dtd"><svg class="icon" width="48px" height="48.00px" viewBox="0 0 1024 1024" version="1.1" xmlns="http://www.w3.org/2000/svg"><path fill="#1296db" d="M415.007 140.098c70.153-10.25 128.086-9.895 192.207 0 43.877 9.637 88.345 17.179 131.507 29.588 31.936 9.186 55.041 31.683 66.453 66.025 18.13 54.261 37.129 108.2 57.124 161.719 3.39 8.96 14.461 22.143 20.648 21.417 42.043-4.915 61.819 19.322 74.663 55.196 3.079 10.99 1.368 21.981 0 29.266-17.507 5.036-35.045 10.032-51.154 14.641 2.27 18.888 6.375 38.065 6.469 57.244 0.715 87.474 1.213 174.982-0.467 262.456-0.28 15.601-8.987 39.903-15.051 43.835-5.722 10.217-133.342 9.733-143.262 2.643-33.148-22.336-12.749-59.821-23.385-90.216H297.244c-8.396 32.167-13.402 86.187-23.509 90.216-22.078 8.799-140.37 9.122-146.963 0-8.956-6.575-15.05-33.101-16.232-50.12-2.457-36.839-1.027-73.968-0.685-110.971 0.653-68.716 1.648-137.433 2.519-206.601-12.438-3.385-30.101-8.251-47.795-13.126-0.964-6.575-2.239-14.632 0-23.415 12.283-37.855 30.257-67.09 76.31-60.997 5.566 0.741 15.828-11.587 18.875-19.854 15.735-42.755 32.62-85.444 43.846-129.569 18.845-74.196 70.496-104.042 136.452-117.192 24.817-4.965 49.974-8.189 74.945-12.185zM217.046 433.11c199.266 42.771 390.26 43.786 586.168 0-16.451-52.601-32.963-99.304-45.401-147.102-10.697-41.063-36.29-61.271-74.415-63.028-92.916-4.335-185.863-7.783-278.81-8.509-30.599-0.242-61.664 7.268-91.704 14.697-12.376 3.078-28.671 12.861-32.9 23.867-22.17 57.469-41.076 116.355-62.938 180.075z m38.25 223.563c0.062-1.127-0.063 1.096 0 0 15.952 0 32.713-0.58 47.857-4.255 11.008-2.674 24.971-11.924 28.453-21.755 2.457-6.961-8.116-24.85-16.855-29.04-36.414-17.502-73.792-33.391-111.947-46.38-19-6.479-40.177-5.255-46.303 22.85-8.925 41.095-0.591 64.011 29.044 70.424 22.794 4.933 46.459 5.609 69.751 8.156z m516.324-0.128c20.586-2.579 46.086-3.513 70.527-9.412 33.397-7.961 26.339-37.195 25.561-61.948-0.653-21.175-13.341-37.097-31.75-31.168-45.992 14.796-91.641 32.232-134.897 54.02-19.871 10.023-12.749 37.677 9.858 42.803 18.13 4.092 37.193 3.705 60.701 5.705z"  /></svg>