<?xml version="1.0" standalone="no"?><!DOCTYPE svg PUBLIC "-//W3C//DTD SVG 1.1//EN" "http://www.w3.org/Graphics/SVG/1.1/DTD/svg11.dtd"><svg class="icon" width="48px" height="48.00px" viewBox="0 0 1024 1024" version="1.1" xmlns="http://www.w3.org/2000/svg"><path fill="#bfbfbf" d="M511.922996 0C229.164085 0 0 229.164085 0 511.922996s229.164085 511.922996 511.922996 511.922996c282.758911 0 511.922996-229.318093 511.922996-511.922996S794.835915 0 511.922996 0z m286.301098 737.85291c16.632877 16.632877 16.632877 43.738307 0 60.371184-8.470447 8.316439-19.405023 12.474658-30.185592 12.474658-10.934577 0-21.715145-4.158219-30.185592-12.474658L512.077004 572.448188 286.301098 798.224094c-8.470447 8.316439-19.405023 12.474658-30.185592 12.474658-10.934577 0-21.715145-4.158219-30.185592-12.474658-16.632877-16.786885-16.632877-43.738307 0-60.371184l225.775906-225.775906-225.929914-225.929914c-16.632877-16.632877-16.632877-43.738307 0-60.371184 16.632877-16.632877 43.738307-16.632877 60.371184 0l225.775906 225.775906L737.698902 225.775906c16.632877-16.632877 43.738307-16.632877 60.371184 0 16.632877 16.632877 16.632877 43.738307 0 60.371184L572.448188 511.922996l225.775906 225.929914z"  /></svg>